<svg width="150" height="49" fill="none" xmlns="http://www.w3.org/2000/svg"><path d="M58.843 21.71c-.067-2.01-.712-3.618-1.936-4.824s-2.911-1.81-5.061-1.81c-2.151 0-3.888.604-5.21 1.81-1.324 1.206-2.118 2.814-2.383 4.824h14.59zm3.324 9.599c-1.389 1.809-2.91 3.074-4.565 3.794-1.654.72-3.573 1.08-5.756 1.08-1.82 0-3.458-.326-4.913-.98-1.456-.653-2.688-1.532-3.697-2.638-1.01-1.105-1.786-2.412-2.332-3.92-.546-1.507-.819-3.115-.819-4.824 0-1.81.298-3.475.893-5 .596-1.524 1.422-2.831 2.482-3.92a11.144 11.144 0 013.77-2.538c1.456-.603 3.044-.904 4.765-.904 1.62 0 3.109.276 4.466.829a9.681 9.681 0 013.498 2.412c.976 1.055 1.728 2.345 2.258 3.87.529 1.524.794 3.258.794 5.2v1.257H44.253a8.318 8.318 0 00.72 2.89 8.34 8.34 0 001.613 2.412 7.447 7.447 0 002.332 1.633c.893.402 1.869.603 2.928.603 1.687 0 3.11-.301 4.268-.904 1.157-.603 2.2-1.49 3.126-2.664l2.927 2.312zm10.521-7.489c0 1.24.19 2.388.57 3.443a8.026 8.026 0 001.662 2.764 7.895 7.895 0 002.606 1.86c1.008.452 2.141.678 3.398.678 1.258 0 2.39-.226 3.4-.679a7.915 7.915 0 002.605-1.86 8.057 8.057 0 001.663-2.763c.38-1.055.57-2.203.57-3.443 0-1.239-.19-2.387-.57-3.442a8.065 8.065 0 00-1.663-2.764 7.929 7.929 0 00-2.605-1.86c-1.01-.452-2.142-.678-3.4-.678-1.257 0-2.39.226-3.398.679a7.91 7.91 0 00-2.606 1.859 8.034 8.034 0 00-1.662 2.764c-.38 1.055-.57 2.203-.57 3.442zm-3.872-11.76h3.871v3.418h.1c1.058-1.272 2.29-2.261 3.696-2.965 1.406-.703 2.953-1.055 4.64-1.055 1.82 0 3.481.31 4.987.93 1.505.62 2.787 1.482 3.846 2.588 1.058 1.105 1.886 2.412 2.481 3.92.595 1.507.894 3.15.894 4.924 0 1.777-.299 3.418-.894 4.925-.595 1.508-1.414 2.815-2.456 3.92a11.135 11.135 0 01-3.697 2.588c-1.423.62-2.945.93-4.565.93-2.084 0-3.913-.46-5.484-1.382-1.571-.921-2.721-2.052-3.448-3.392h-.1v15.63h-3.87V12.06zm41.436 12.213c-2.48 0-4.449.352-5.905 1.056-1.456.703-2.184 1.86-2.184 3.467 0 1.475.489 2.522 1.465 3.141.975.62 2.191.93 3.646.93 1.125 0 2.11-.192 2.954-.578.843-.385 1.545-.896 2.108-1.533a6.626 6.626 0 001.291-2.236 9.313 9.313 0 00.497-2.739v-1.508h-3.872zm-11.215-9.196a10.906 10.906 0 014.243-2.739 14.71 14.71 0 014.988-.88c3.44 0 5.921.822 7.443 2.463 1.521 1.642 2.283 4.138 2.283 7.488V31.51c0 .67.032 1.366.099 2.086.066.72.149 1.382.248 1.985h-3.722a8.38 8.38 0 01-.223-1.784 63.08 63.08 0 01-.025-1.734h-.099c-.761 1.206-1.779 2.194-3.052 2.965-1.274.77-2.804 1.156-4.59 1.156-1.191 0-2.308-.151-3.35-.453-1.042-.301-1.952-.745-2.729-1.331a6.546 6.546 0 01-1.861-2.186c-.464-.871-.695-1.876-.695-3.016 0-1.942.497-3.467 1.49-4.573.991-1.105 2.224-1.926 3.695-2.462 1.473-.536 3.061-.871 4.764-1.005a60.206 60.206 0 014.691-.201h1.489v-.704c0-1.709-.505-2.998-1.515-3.87-1.009-.87-2.423-1.306-4.243-1.306-1.256 0-2.489.21-3.696.628a8.858 8.858 0 00-3.201 1.935l-2.432-2.563zm26.4-3.016h3.87v23.52h-3.87V12.06zm-.893-9.197c0-.77.272-1.44.818-2.01a2.677 2.677 0 012.01-.854c.794 0 1.465.285 2.01.854.546.57.819 1.24.819 2.01 0 .838-.265 1.525-.794 2.06-.53.537-1.208.805-2.035.805-.827 0-1.506-.268-2.034-.804-.53-.536-.794-1.223-.794-2.06zm-99.625 18.17c0-.416.114-1.907.226-2.408.735-3.28 3.85-7.418 9.91-7.185.486.019.827.05 1.216.148v3.639c-.518-.054-1.64-.066-2.235-.028-1.741.111-4.286 1.35-5.113 4.64-.264 1.046-.183 3.335-.183 4.075l-.002 11.644h-3.82V21.034zm112.083.025c0-.416.114-1.908.227-2.409.734-3.28 3.85-7.418 9.909-7.184.486.018.827.049 1.216.147v3.64c-.518-.054-1.639-.067-2.234-.029-1.742.112-4.286 1.351-5.114 4.64-.263 1.047-.183 3.336-.183 4.075l-.002 11.644h-3.819V21.059z" fill="#F7F5F5"/><path d="M8.773 22.765l11.215-10.704H14.48L3.91 22.413 3.907 0 .037 3.785.038 35.58h3.87V23.218L15.424 35.58h5.706L8.773 22.765z" fill="#F03957"/><path d="M5.099 43.123H4.16a1.271 1.271 0 00-.509-.71c-.257-.18-.583-.27-.98-.27-.514 0-.927.19-1.242.572-.314.382-.471.888-.471 1.517 0 .643.158 1.153.474 1.527.316.375.733.563 1.249.563.387 0 .708-.084.965-.25.256-.166.431-.405.525-.716h.937a2.015 2.015 0 01-.807 1.294c-.44.33-.982.494-1.625.494-.81 0-1.458-.263-1.946-.788-.486-.525-.73-1.233-.73-2.124 0-.877.244-1.581.731-2.114.488-.532 1.133-.798 1.935-.798.664 0 1.213.173 1.647.52.433.346.695.774.786 1.283zm4.325-.991c-.459 0-.84.148-1.14.445-.303.297-.47.688-.502 1.172h3.213c-.01-.484-.16-.875-.447-1.172-.287-.297-.662-.445-1.124-.445zm1.55 3.325h.931c-.08.492-.346.895-.802 1.212-.455.316-.995.475-1.62.475-.82 0-1.47-.26-1.953-.78-.482-.52-.723-1.223-.723-2.11 0-.888.24-1.6.72-2.133.48-.534 1.118-.8 1.913-.8.78 0 1.398.251 1.853.755.455.504.683 1.187.683 2.05v.36H7.782v.053c0 .545.157.98.471 1.305.315.326.732.488 1.252.488.365 0 .68-.078.945-.236.266-.157.44-.37.523-.639zm5.7.865c.517 0 .931-.19 1.244-.57.312-.38.469-.887.469-1.52 0-.63-.157-1.135-.47-1.517-.312-.382-.726-.573-1.243-.573-.502 0-.91.193-1.224.578-.314.386-.472.89-.472 1.512s.157 1.126.47 1.512a1.5 1.5 0 001.226.578zm.174-5.002c.748 0 1.352.268 1.812.804.46.536.691 1.238.691 2.108 0 .87-.23 1.572-.688 2.108-.459.536-1.057.804-1.794.804-.411 0-.779-.085-1.102-.255a1.875 1.875 0 01-.761-.727h-.022V49h-.943v-7.627h.894v.928h.022c.17-.297.426-.534.77-.713a2.395 2.395 0 011.12-.268zm6.882 3.193h-1.382v1.814h1.56c.354 0 .625-.077.813-.23.188-.154.282-.376.282-.666 0-.311-.105-.542-.314-.692-.21-.15-.53-.226-.96-.226zm.07-2.376h-1.452v1.613h1.3c.733 0 1.1-.273 1.1-.817 0-.258-.081-.455-.244-.591-.162-.136-.397-.205-.704-.205zm-2.384 4.954v-5.718h2.503c.542 0 .97.131 1.282.393.312.262.468.619.468 1.071 0 .29-.092.554-.276.79-.184.238-.41.384-.677.44v.043c.365.05.658.197.88.44.222.244.334.543.334.897 0 .505-.18.906-.537 1.201-.358.295-.845.443-1.463.443h-2.514zm7.538-.001h-.931v-5.717h.931v4.291h.044l3.007-4.29h.932v5.717h-.932V42.8h-.043l-3.008 4.29zM40.1 43.123h-.937a1.271 1.271 0 00-.51-.71c-.256-.18-.582-.27-.98-.27-.513 0-.926.19-1.24.572-.315.382-.472.888-.472 1.517 0 .643.158 1.153.474 1.527.316.375.732.563 1.249.563.387 0 .708-.084.964-.25.257-.166.432-.405.526-.716h.937a2.015 2.015 0 01-.807 1.294c-.44.33-.983.494-1.625.494-.81 0-1.458-.263-1.946-.788-.487-.525-.731-1.233-.731-2.124 0-.877.244-1.581.731-2.114.488-.532 1.133-.798 1.935-.798.664 0 1.213.173 1.647.52.433.346.695.774.786 1.283zm5.897 3.967v-2.587h-2.97v2.588h-.931v-5.718h.932v2.366h2.969v-2.365h.932v5.717h-.932zm8.247 0v-5.717h.932v5.718h-.932zm-2.93-3.118h-1.1v2.355h1.1c.382 0 .688-.107.917-.32.23-.215.345-.5.345-.857s-.115-.643-.345-.857c-.229-.214-.535-.32-.918-.32zm-2.033 3.119v-5.718h.932v1.836h1.1c.668 0 1.201.175 1.598.525.398.35.597.822.597 1.416s-.2 1.066-.597 1.416c-.397.35-.93.525-1.598.525h-2.032zm8.979-8.221h.693c0 .315.097.577.29.785.193.209.447.313.761.313.315 0 .569-.104.762-.313.193-.208.29-.47.29-.785h.693c0 .488-.162.884-.485 1.188-.323.304-.743.456-1.26.456-.516 0-.936-.152-1.26-.456-.323-.304-.484-.7-.484-1.188zm.2 8.22h-.932v-5.717h.932v4.291h.044l3.007-4.29h.932v5.717h-.932V42.8h-.044l-3.007 4.29zm26.2 1.512h-.878v-1.511h-4.778v-5.717h.932v4.953h2.86v-4.953h.933v4.953h.932v2.276zm4.179-6.47c-.459 0-.839.148-1.14.445-.302.297-.47.688-.502 1.172h3.213c-.01-.484-.16-.875-.447-1.172-.287-.297-.662-.445-1.124-.445zm1.55 3.325h.931c-.079.492-.346.895-.801 1.212-.455.316-.996.475-1.62.475-.82 0-1.472-.26-1.954-.78s-.723-1.223-.723-2.11c0-.888.24-1.6.72-2.133.48-.534 1.118-.8 1.913-.8.78 0 1.398.251 1.853.755.456.504.683 1.187.683 2.05v.36h-4.194v.053c0 .545.157.98.472 1.305.314.326.731.488 1.251.488.365 0 .68-.078.946-.236.265-.157.44-.37.522-.639zm6.969 1.633v-2.587h-2.97v2.588h-.932v-5.718h.933v2.366h2.969v-2.365h.931v5.717h-.931zm7.532-5.717v.764h-1.896v4.954h-.933v-4.954h-1.896v-.764h4.725zm4.509 4.949c.516 0 .931-.19 1.244-.57.312-.38.468-.887.468-1.52 0-.63-.156-1.135-.468-1.517-.313-.382-.728-.573-1.244-.573-.503 0-.91.193-1.225.578-.314.386-.471.89-.471 1.512s.157 1.126.469 1.512c.312.385.721.578 1.227.578zm.173-5.002c.748 0 1.352.268 1.813.804.46.535.691 1.238.691 2.108 0 .87-.23 1.572-.688 2.108-.459.536-1.057.804-1.794.804-.412 0-.779-.085-1.103-.255a1.88 1.88 0 01-.761-.727h-.021V49h-.943v-7.627h.893v.928h.022c.17-.297.427-.534.77-.713a2.393 2.393 0 011.121-.268z" fill="#D9D9D9"/></svg>