<svg width="198" height="65" fill="none" xmlns="http://www.w3.org/2000/svg"><path d="M77.672 28.799c-.088-2.666-.94-4.8-2.554-6.4-1.616-1.6-3.844-2.4-6.682-2.4-2.839 0-5.131.8-6.878 2.4-1.746 1.6-2.795 3.733-3.144 6.4h19.258zm4.389 12.733c-1.834 2.4-3.843 4.078-6.026 5.033-2.184.955-4.716 1.433-7.599 1.433-2.402 0-4.563-.433-6.485-1.3-1.922-.867-3.548-2.033-4.88-3.5-1.332-1.466-2.358-3.2-3.078-5.2-.72-2-1.08-4.133-1.08-6.4 0-2.4.392-4.61 1.178-6.632.786-2.022 1.877-3.755 3.276-5.2 1.396-1.444 3.056-2.566 4.977-3.367 1.922-.8 4.018-1.2 6.289-1.2 2.139 0 4.104.367 5.895 1.1 1.79.734 3.33 1.8 4.618 3.2 1.288 1.4 2.281 3.112 2.98 5.133.699 2.023 1.049 4.323 1.049 6.9V33.2h-24.76c.086 1.333.403 2.611.95 3.833a11.115 11.115 0 002.128 3.2 9.832 9.832 0 003.079 2.166c1.179.534 2.466.8 3.864.8 2.228 0 4.105-.4 5.634-1.2 1.528-.8 2.904-1.977 4.126-3.533l3.865 3.067zM95.948 31.6c0 1.644.25 3.166.752 4.566a10.656 10.656 0 002.195 3.667 10.425 10.425 0 003.439 2.466c1.331.6 2.827.9 4.486.9 1.66 0 3.156-.3 4.488-.9a10.451 10.451 0 003.439-2.466 10.706 10.706 0 002.195-3.667c.501-1.4.752-2.922.752-4.566 0-1.644-.251-3.167-.752-4.567a10.715 10.715 0 00-2.195-3.667 10.47 10.47 0 00-3.439-2.466c-1.332-.6-2.828-.9-4.488-.9-1.659 0-3.155.3-4.486.9-1.332.6-2.48 1.423-3.439 2.466a10.665 10.665 0 00-2.195 3.667c-.502 1.4-.752 2.923-.752 4.567zM90.838 16h5.11v4.533h.13c1.397-1.688 3.023-3 4.88-3.933 1.856-.933 3.897-1.4 6.125-1.4 2.401 0 4.595.412 6.583 1.233 1.986.823 3.678 1.967 5.077 3.434 1.396 1.466 2.489 3.2 3.274 5.2.786 2 1.18 4.177 1.18 6.533 0 2.356-.394 4.533-1.18 6.533-.785 2-1.866 3.733-3.242 5.2a14.7 14.7 0 01-4.879 3.433c-1.879.821-3.888 1.233-6.027 1.233-2.751 0-5.165-.612-7.238-1.833-2.075-1.222-3.593-2.722-4.552-4.5h-.131v20.732h-5.11V16zm54.695 16.199c-3.274 0-5.873.467-7.795 1.4-1.922.933-2.883 2.466-2.883 4.6 0 1.956.645 3.344 1.933 4.166 1.288.823 2.893 1.233 4.814 1.233 1.485 0 2.785-.255 3.899-.766 1.112-.51 2.04-1.189 2.783-2.033a8.814 8.814 0 001.704-2.967 12.37 12.37 0 00.655-3.633v-2h-5.11zm-14.804-12.2a14.384 14.384 0 015.6-3.633 19.339 19.339 0 016.584-1.166c4.542 0 7.816 1.09 9.825 3.266 2.009 2.178 3.014 5.49 3.014 9.933v13.4c0 .89.042 1.81.13 2.766s.197 1.833.328 2.633h-4.912c-.176-.71-.273-1.5-.295-2.366a87.263 87.263 0 01-.033-2.3h-.13c-1.006 1.6-2.349 2.911-4.03 3.933-1.681 1.022-3.7 1.533-6.059 1.533-1.572 0-3.046-.2-4.422-.6-1.375-.4-2.576-.988-3.602-1.766a8.665 8.665 0 01-2.456-2.9c-.613-1.155-.917-2.489-.917-4 0-2.577.655-4.6 1.965-6.066 1.309-1.467 2.936-2.556 4.879-3.267 1.944-.71 4.04-1.155 6.289-1.333a79.355 79.355 0 016.191-.267h1.965v-.933c0-2.267-.666-3.977-1.999-5.133-1.332-1.156-3.199-1.734-5.601-1.734-1.658 0-3.285.278-4.878.834a11.676 11.676 0 00-4.226 2.566l-3.21-3.4zM165.576 16h5.109v31.2h-5.109V16zm-1.179-12.2c0-1.021.36-1.91 1.08-2.666.721-.755 1.606-1.133 2.654-1.133 1.048 0 1.933.378 2.653 1.133.72.757 1.081 1.645 1.081 2.667 0 1.111-.35 2.023-1.048 2.733-.699.711-1.595 1.067-2.686 1.067-1.092 0-1.989-.356-2.685-1.067-.7-.71-1.049-1.622-1.049-2.733zM32.894 27.903c0-.552.15-2.53.298-3.195.97-4.352 5.082-9.84 13.08-9.53.642.024 1.092.065 1.606.195v4.828c-.684-.072-2.164-.088-2.95-.038-2.298.148-5.657 1.792-6.75 6.155-.347 1.388-.24 4.425-.24 5.406l-.003 15.446h-5.041V27.903zm147.949.032c0-.553.15-2.531.299-3.196.969-4.352 5.082-9.84 13.081-9.53.641.024 1.091.065 1.605.196v4.827c-.684-.071-2.164-.088-2.95-.037-2.299.148-5.657 1.792-6.75 6.154-.347 1.389-.242 4.426-.242 5.406l-.002 15.446h-5.041V27.935z" fill="#040606"/><path d="M11.58 30.2L26.382 16h-7.27L5.16 29.733 5.156.001.046 5.023l.005 42.176h5.11V30.8l15.196 16.4h7.533l-16.31-17z" fill="#F03957"/><path d="M6.73 57.204H5.493a1.686 1.686 0 00-.672-.942c-.339-.24-.77-.36-1.295-.36-.677 0-1.223.254-1.638.76-.415.507-.622 1.178-.622 2.013 0 .853.208 1.529.626 2.026.417.497.966.746 1.648.746.51 0 .935-.11 1.273-.331.339-.22.57-.537.694-.95h1.237a2.675 2.675 0 01-1.065 1.717c-.582.436-1.297.654-2.146.654-1.068 0-1.924-.348-2.568-1.045C.322 60.796 0 59.857 0 58.675c0-1.163.322-2.098.965-2.804.644-.706 1.495-1.059 2.554-1.059.877 0 1.602.23 2.174.69.572.46.918 1.027 1.037 1.702zm5.709-1.315c-.606 0-1.108.197-1.506.59-.398.395-.618.913-.661 1.556h4.241c-.014-.643-.211-1.161-.59-1.555-.38-.394-.874-.591-1.484-.591zm2.045 4.41h1.23c-.104.653-.457 1.189-1.058 1.608-.6.42-1.314.63-2.139.63-1.082 0-1.941-.345-2.578-1.034-.636-.69-.955-1.623-.955-2.8 0-1.177.317-2.12.952-2.828.634-.709 1.475-1.063 2.524-1.063 1.03 0 1.846.335 2.446 1.003.601.668.902 1.575.902 2.719v.478h-5.536v.07c0 .723.207 1.3.622 1.731.415.432.966.648 1.652.648.482 0 .898-.105 1.248-.313.35-.21.58-.492.69-.848zm7.526 1.148c.682 0 1.23-.252 1.641-.756.413-.504.62-1.176.62-2.016 0-.835-.207-1.506-.62-2.012-.412-.506-.959-.76-1.64-.76-.664 0-1.203.256-1.617.767-.415.511-.622 1.18-.622 2.005 0 .826.206 1.494.618 2.005.413.511.953.767 1.62.767zm.23-6.634c.986 0 1.784.355 2.391 1.065.608.711.912 1.643.912 2.797 0 1.154-.302 2.086-.908 2.797-.606.71-1.395 1.066-2.367 1.066a3.071 3.071 0 01-1.456-.338 2.48 2.48 0 01-1.005-.964h-.028V65h-1.245V54.883h1.18v1.231h.029c.224-.394.563-.71 1.016-.946a3.148 3.148 0 011.48-.355zm9.084 4.234H29.5v2.407h2.06c.467 0 .824-.102 1.072-.306.248-.204.372-.499.372-.883 0-.413-.138-.719-.414-.919-.277-.199-.7-.298-1.266-.298zm.092-3.151H29.5v2.139h1.716c.968 0 1.452-.362 1.452-1.084 0-.342-.107-.604-.322-.784-.214-.18-.524-.271-.93-.271zm-3.146 6.57v-7.583h3.304c.715 0 1.279.173 1.691.52.413.347.619.821.619 1.422 0 .384-.122.733-.365 1.048-.243.314-.541.509-.894.584v.056c.482.066.87.26 1.162.584.294.323.44.72.44 1.189 0 .67-.236 1.202-.708 1.593-.472.392-1.115.588-1.93.588h-3.32zm9.95.001h-1.23v-7.584h1.23v5.691h.056l3.97-5.691h1.23v7.584h-1.23v-5.692h-.057l-3.97 5.692zm14.712-5.263h-1.237a1.686 1.686 0 00-.672-.942c-.339-.24-.77-.36-1.295-.36-.677 0-1.223.254-1.638.76-.415.507-.622 1.178-.622 2.013 0 .853.209 1.529.626 2.026.417.497.966.746 1.648.746.51 0 .935-.11 1.274-.331.338-.22.57-.537.693-.95h1.238a2.675 2.675 0 01-1.066 1.717c-.582.436-1.297.654-2.146.654-1.068 0-1.924-.348-2.568-1.045-.643-.696-.965-1.635-.965-2.817 0-1.163.322-2.098.965-2.804.644-.706 1.495-1.059 2.554-1.059.877 0 1.602.23 2.174.69.572.46.918 1.027 1.037 1.702zm7.783 5.263v-3.434h-3.92v3.434h-1.23v-7.584h1.23v3.137h3.92v-3.137h1.23v7.584h-1.23zm10.887 0v-7.584h1.23v7.584h-1.23zm-3.87-4.137h-1.451v3.124h1.452c.505 0 .91-.142 1.212-.426.303-.284.454-.662.454-1.136 0-.474-.151-.852-.454-1.136-.303-.284-.707-.426-1.212-.426zm-2.681 4.137v-7.584h1.23v2.434h1.452c.882 0 1.585.232 2.11.696.524.465.786 1.09.786 1.879 0 .788-.262 1.414-.786 1.878-.525.465-1.228.697-2.11.697H65.05zm11.852-10.905h.915c0 .418.128.764.383 1.041.255.277.59.415 1.005.415.415 0 .75-.138 1.005-.415.255-.277.383-.623.383-1.041h.915c0 .647-.213 1.173-.64 1.576-.427.403-.981.605-1.663.605s-1.236-.202-1.663-.605c-.427-.403-.64-.929-.64-1.576zm.265 10.905h-1.23v-7.584h1.23v5.691h.057l3.97-5.691h1.23v7.584h-1.23v-5.692h-.058l-3.97 5.692zm34.584 2.006h-1.159v-2.005h-6.308v-7.585h1.23v6.571h3.776v-6.57h1.231v6.57h1.23v3.019zm5.515-8.584c-.605 0-1.107.197-1.505.59-.398.395-.619.913-.662 1.556h4.241c-.014-.643-.211-1.161-.59-1.555-.379-.394-.874-.591-1.484-.591zm2.046 4.41h1.23c-.105.653-.458 1.189-1.058 1.608-.601.42-1.314.63-2.139.63-1.083 0-1.942-.345-2.578-1.034-.637-.69-.956-1.623-.956-2.8 0-1.177.317-2.12.952-2.828.634-.709 1.476-1.063 2.525-1.063 1.029 0 1.845.335 2.445 1.003.602.668.902 1.575.902 2.719v.478H115.1v.07c0 .723.207 1.3.623 1.731.414.432.965.648 1.651.648.482 0 .898-.105 1.249-.313.35-.21.58-.492.69-.848zm9.199 2.168v-3.434h-3.919v3.434h-1.231v-7.584h1.231v3.137h3.919v-3.137h1.23v7.584h-1.23zm9.943-7.584v1.013h-2.503v6.57h-1.231v-6.57h-2.503v-1.013h6.237zm5.953 6.564c.681 0 1.229-.252 1.642-.756.412-.505.618-1.176.618-2.016 0-.835-.206-1.506-.618-2.012-.413-.506-.961-.76-1.642-.76-.664 0-1.202.256-1.617.767-.414.511-.622 1.18-.622 2.005 0 .826.207 1.494.619 2.005.412.511.952.767 1.62.767zm.229-6.634c.986 0 1.784.355 2.392 1.065.607.711.912 1.643.912 2.797 0 1.154-.303 2.086-.908 2.797-.606.71-1.394 1.066-2.368 1.066a3.068 3.068 0 01-1.455-.338 2.487 2.487 0 01-1.006-.964h-.027V65h-1.245V54.883h1.18v1.231h.029c.223-.394.562-.71 1.015-.946a3.152 3.152 0 011.481-.355z" fill="#6F7375"/></svg>