<svg aria-hidden="true" version="1.1" xmlns="http://www.w3.org/2000/svg" xmlns:xlink="http://www.w3.org/1999/xlink">
<defs>
<symbol id="icon-icon-prev-arrowLeft" viewBox="0 0 20 32">
<path d="M6.070 16l11.708 11.708c0.694 0.694 0.694 1.82 0 2.514s-1.82 0.694-2.514 0l-14.222-14.222 14.222-14.222c0.694-0.694 1.82-0.694 2.514 0s0.694 1.82 0 2.514l-11.708 11.708z"></path>
</symbol>
<symbol id="icon-icon-prev-arrowRight" viewBox="0 0 20 32">
<path d="M13.486 16l-11.708 11.708c-0.694 0.694-0.694 1.82 0 2.514s1.82 0.694 2.514 0l14.222-14.222-14.222-14.222c-0.694-0.694-1.82-0.694-2.514 0s-0.694 1.82 0 2.514l11.708 11.708z"></path>
</symbol>
<symbol id="icon-trending_neutral" viewBox="0 0 24 24">
<path d="M21.984 12l-3.984 3.984v-3h-15v-1.969h15v-3z"></path>
<symbol id="icon-paper_attachment_clip_icon-1" viewBox="0 0 32 32">
<path d="M16.864 4.431c-3.374-0.028-6.131 2.686-6.156 6.060l-0.193 13.921c-0.021 2.619 2.094 4.768 4.714 4.789s4.768-2.094 4.788-4.713l0.192-13.921c0.015-1.875-1.492-3.406-3.367-3.42s-3.406 1.493-3.42 3.366l-0.083 10.528c-0.002 0.376 0.298 0.681 0.674 0.684s0.681-0.298 0.684-0.673l0.083-10.529c0.009-1.123 0.929-2.028 2.052-2.020s2.029 0.929 2.020 2.052l-0.193 13.921c-0.015 1.875-1.545 3.381-3.42 3.366s-3.382-1.546-3.366-3.42l0.19-13.785c0.021-2.624 2.165-4.736 4.788-4.713 2.626 0.020 4.735 2.163 4.714 4.787l-0.081 10.392c-0.003 0.377 0.297 0.682 0.673 0.684 0.376 0.003 0.681-0.297 0.684-0.673l0.082-10.527c0.028-3.374-2.686-6.131-6.060-6.156z"></path>
</symbol>
<symbol id="icon-arrow-accord" viewBox="0 0 24 24">
<path d="M7.406 15.422l-1.406-1.406 6-6 6 6-1.406 1.406-4.594-4.594z"></path>
</symbol>
<symbol id="icon-tooltip" viewBox="0 0 32 32">
<path fill="transparent" stroke="#f03957" stroke-linejoin="miter" stroke-linecap="butt" stroke-miterlimit="4" stroke-width="2.0870" d="M30.957 16c0 8.26-6.696 14.957-14.957 14.957s-14.957-6.696-14.957-14.957c0-8.26 6.696-14.957 14.957-14.957s14.957 6.696 14.957 14.957z"></path>
<path fill="#f03957" style="fill: var(--color2, #f03957)" d="M13.881 20.49v-0.095c0.011-1.007 0.116-1.808 0.316-2.403s0.485-1.078 0.854-1.447c0.369-0.369 0.812-0.709 1.328-1.020 0.311-0.19 0.59-0.414 0.838-0.672 0.248-0.264 0.443-0.567 0.585-0.909 0.147-0.342 0.221-0.722 0.221-1.138 0-0.516-0.121-0.964-0.364-1.344s-0.567-0.672-0.972-0.877c-0.406-0.206-0.856-0.308-1.352-0.308-0.432 0-0.848 0.090-1.249 0.269s-0.735 0.461-1.004 0.846c-0.269 0.385-0.424 0.888-0.466 1.51h-1.992c0.042-0.896 0.274-1.663 0.696-2.3 0.427-0.638 0.988-1.125 1.684-1.462 0.701-0.337 1.478-0.506 2.332-0.506 0.928 0 1.734 0.184 2.419 0.553 0.69 0.369 1.223 0.875 1.597 1.518 0.379 0.643 0.569 1.376 0.569 2.198 0 0.58-0.090 1.104-0.269 1.573-0.174 0.469-0.427 0.888-0.759 1.257-0.327 0.369-0.722 0.696-1.186 0.98-0.464 0.29-0.835 0.595-1.115 0.917-0.279 0.316-0.482 0.693-0.609 1.13s-0.195 0.983-0.206 1.636v0.095h-1.897zM14.893 25.17c-0.39 0-0.725-0.14-1.004-0.419s-0.419-0.614-0.419-1.004 0.14-0.725 0.419-1.004c0.279-0.279 0.614-0.419 1.004-0.419s0.725 0.14 1.004 0.419c0.279 0.279 0.419 0.614 0.419 1.004 0 0.258-0.066 0.495-0.198 0.711-0.126 0.216-0.298 0.39-0.514 0.522-0.211 0.127-0.448 0.19-0.712 0.19z"></path>
</symbol>
</defs>
</svg>
