<svg width="49" height="53" fill="none" xmlns="http://www.w3.org/2000/svg"><path d="M42.383 48.796A3.22 3.22 0 0139.181 52m-.001-.001H4.203m.001.001A3.217 3.217 0 011 48.796m0-.001V13.83L14.868 1h24.313m-.001 0a3.215 3.215 0 013.203 3.203m.001 0V25.41M15.504 1v11.829m.002-.001c0 .938-.773 1.715-1.713 1.715m-.001.001H1m22.677-8.106h12.3m0 0c.417 0 .763.378.763.832m.001-.001v7.026m-.001-.001c0 .459-.346.831-.763.831m0 .002h-12.3m.001-.002c-.422 0-.764-.372-.764-.831m0 .001V7.269m0 .001c0-.454.342-.832.764-.832M6.06 23.232h30.75M6.06 33.893h21.147M6.06 44.557h22.658M47.34 36.89a7.455 7.455 0 11-7.452-7.454c1.366 0 2.645.368 3.748 1.01m-7.024 5.704l3.788 3.47m6.936-7.577l-6.938 7.578" stroke="#F7F5F5" stroke-width="2" stroke-miterlimit="2.613" stroke-linecap="round" stroke-linejoin="round"/></svg>